<?xml version="1.0" standalone="no"?><!DOCTYPE svg PUBLIC "-//W3C//DTD SVG 1.1//EN" "http://www.w3.org/Graphics/SVG/1.1/DTD/svg11.dtd"><svg t="1638170580548" class="icon" viewBox="0 0 1024 1024" version="1.1" xmlns="http://www.w3.org/2000/svg" p-id="950" xmlns:xlink="http://www.w3.org/1999/xlink" width="200" height="200"><defs><style type="text/css"></style></defs><path d="M938.667 213.333h-128v-128h-85.334v128H640A170.667 170.667 0 0 0 469.333 384v85.333H384A170.667 170.667 0 0 0 213.333 640v85.333h-128v85.334h128v128h85.334v-128H384A170.667 170.667 0 0 0 554.667 640v-85.333H640A170.667 170.667 0 0 0 810.667 384v-85.333h128zM469.333 640A85.333 85.333 0 0 1 384 725.333h-85.333V640A85.333 85.333 0 0 1 384 554.667h85.333z m256-256A85.333 85.333 0 0 1 640 469.333h-85.333V384A85.333 85.333 0 0 1 640 298.667h85.333z" fill="#ffffff" p-id="951"></path></svg>